<svg id="Capa_3" data-name="Capa 3" xmlns="http://www.w3.org/2000/svg" viewBox="0 0 585 146"><g id="yXYl5S.tif"><path d="M3.5,100.65c1.14-.55,1.19-1.76,1.62-2.7,4.23-9.27,8.49-18.54,12.57-27.88.95-2.2,2.06-3,4.62-3,15.51.15,31,0,46.53.14,4.21,0,6.76-1.53,8.12-5.33.52-1.44,1.21-2.82,1.81-4.23,1.46-3.4.9-4.27-2.93-4.28q-23.08,0-46.19,0H25.38c1.36-3,2.56-5.75,3.83-8.46.48-1,1.52-.74,2.37-.74,20.75,0,41.51,0,62.26,0,5.31,0,7.29,3,5.21,7.74-1.94,4.41-4.06,8.75-5.91,13.2s-5.41,7.05-10.34,8.25c1.41,1.25,3.61,1.9,3.57,4.17a13.31,13.31,0,0,1-1.48,5.67,91.32,91.32,0,0,0-3.79,8.39c-2.6,7.17-8.14,9.74-15.35,9.75q-31.12,0-62.25,0ZM44.64,92.1H54c9.29,0,9.29,0,12.92-8.36C68.6,79.87,68,79,63.52,79c-7.57,0-15.14,0-22.7,0-9.76,0-9.76,0-13.52,9-1.24,3-.62,4,2.65,4.09C34.85,92.16,39.75,92.1,44.64,92.1Z"/><path d="M581.5,44.76c-2,2.62-3,5.76-4.29,8.73-.81,1.9-1.83,2.54-4,2.52-16.18-.1-32.37,0-48.55-.1-4.21,0-6.92,1.52-8.58,5.37-3.36,7.75-7,15.39-10.4,23.1-1.66,3.7-.74,5.07,3.36,5.08,9.71,0,19.42,0,29.14,0,6.56,0,8.2-1.21,10.26-7.77H529.67c1.78-3.84,3.39-7.28,4.94-10.74a2,2,0,0,1,2.1-1.22c10.68,0,21.36,0,32.42,0-.74,2.19-1.21,4.09-2,5.86-2.57,5.82-5.29,11.57-7.87,17.38-2.47,5.54-6.9,8.25-12.88,8.28-18.19.1-36.39.06-54.58,0-6.05,0-7.94-3-5.47-8.47,6.05-13.39,12.18-26.75,18.16-40.18,2.59-5.82,7.12-8.51,13.38-8.53,21.21,0,42.41,0,63.62,0Z"/><path d="M141.47,102q-7.18-10.86-14.35-21.72a7.77,7.77,0,0,1-.34-.92c3.82,1.52,7.26,2.83,10.65,4.27,1.58.68,2.63.77,2.44-1.34-.6-6.49-.17-13.06-1.34-20.08-5.63,6.14-11,11.95-16.29,17.77q-9.15,10-18.26,20.1a3,3,0,0,1-2.48,1.28c-5.1-.06-10.2,0-15.39,0,0-1.45,1.09-2,1.78-2.77q23.91-26.16,47.84-52.31a5.63,5.63,0,0,1,4.83-2.18c4.23.18,8.47.12,12.71,0,1.68,0,2.26.4,2.35,2.16q1.17,25.1,2.58,50.18c.15,2.74.29,5.15-3.33,5.56Z"/><path d="M353.71,67H400c-1.86,4-3.52,7.58-5.23,11.17-.65,1.34-2,.74-3,.75-13.5,0-27,0-40.5.06-1.2,0-2.9-.81-3.57.84-1,2.58-3.29,4.9-2.67,7.91.4,1.89,2.34,1.71,3.9,1.71q18.41,0,36.82,0h15c-1.73,3.81-3.34,7.27-4.86,10.75-.53,1.22-1.52,1.09-2.52,1.09-20.86,0-41.73,0-62.59,0-5,0-6.94-3.24-4.91-7.74,6.27-13.89,12.6-27.75,18.88-41.63a12.46,12.46,0,0,1,11.84-7.72c20.75-.19,41.51-.06,62.26-.1,2.07,0,2.36.63,1.36,2.24a5.53,5.53,0,0,0-.24.61c-1.43,3-2.12,7-4.49,8.56s-6.25.46-9.48.46Q386,56,365.91,56c-6.68,0-7.73.67-10.31,6.62C355,64,354.42,65.36,353.71,67Z"/><path d="M201.75,101.31c-9,0-18.08,0-27.13,0-6.36,0-8.27-2.88-5.72-8.52,6.09-13.49,12.23-27,18.3-40.47,2.5-5.56,7-8.15,12.94-8.18,18.19-.08,36.39-.05,54.58,0,6,0,7.91,2.9,5.52,8.18Q251,72.69,241.79,93.06c-2.49,5.54-6.94,8.14-12.92,8.22C219.83,101.39,210.79,101.31,201.75,101.31Zm20-45.35H206a6.82,6.82,0,0,0-6.7,4Q193.58,72.41,188,84.87c-1.37,3.09-.35,4.57,3.14,4.58,10.6.06,21.2,0,31.8,0a7,7,0,0,0,6.84-4.38c3.73-8.18,7.48-16.35,11.14-24.56,1.38-3.11.39-4.51-3.13-4.54C232.46,55.92,227.1,56,221.75,56Z"/><path d="M464.67,85.69c6-13.26,11.86-26,17.52-38.85,1-2.17,2.08-2.93,4.42-2.79a73.24,73.24,0,0,0,9.37,0c2.87-.19,2.78.77,1.8,2.91-6.84,15-13.58,30-20.38,44.92-1.4,3.08-2.16,7.1-4.59,8.89s-6.72.09-10.1.59c-5.54.82-8.39-1.3-10.73-6.35-5.38-11.59-11.56-22.81-17.66-34.67-1.31,2.83-2.42,5.19-3.49,7.56-4.71,10.38-9.45,20.76-14.08,31.17-.72,1.62-1.51,2.38-3.43,2.28a87.19,87.19,0,0,0-9.7,0c-2.76.15-3.48-.33-2.18-3.12C407.39,85.4,413.15,72.49,419,59.61c2-4.5,4.15-9,6.08-13.5a2.94,2.94,0,0,1,3.25-2c4.13.12,8.26.18,12.38,0a4.13,4.13,0,0,1,4.53,2.71C451.17,59,457.31,71.13,463.39,83.3,463.73,84,464.11,84.64,464.67,85.69Z"/><path d="M246.79,101.31l8.89-19.67c4.34-9.59,8.78-19.13,13-28.77,2.6-6,7.17-8.74,13.57-8.75,20.08,0,40.16,0,60.24-.06,2.48,0,3.24.39,1.95,2.8-1.55,2.9-2.1,7.06-4.47,8.58s-6.46.5-9.8.51q-20.25,0-40.49,0c-5.89,0-7.28.9-9.58,6.23-.65,1.5-1.28,3-2.07,4.86h46.32c-1.79,3.87-3.43,7.31-5,10.79-.68,1.55-2,1.12-3.13,1.12-13.61,0-27.22.08-40.83,0-2.42,0-3.49.8-4.36,2.87-2.43,5.76-5.15,11.39-7.61,17.13-.73,1.73-1.59,2.54-3.63,2.45C255.68,101.18,251.55,101.31,246.79,101.31Z"/></g></svg>